<control> default_path=Sustain\
<region> hikey=c#3 pitch_keycenter=c3 sample=3_C_mf.wav offset=20151
<region> lokey=d3 hikey=e3 pitch_keycenter=d#3 sample=3_Eb_mf.wav offset=14864
<region> lokey=f3 hikey=g3 pitch_keycenter=f#3 sample=3_Gb_mf.wav offset=9429
<region> lokey=g#3 hikey=a#3 pitch_keycenter=a3 sample=3_A_mf.wav offset=10229
<region> lokey=b3 hikey=c#4 pitch_keycenter=c4 sample=4_C_mf.wav offset=10265
<region> lokey=d4 hikey=e4 pitch_keycenter=d#4 sample=4_Eb_mf.wav offset=9489
<region> lokey=f4 hikey=g4 pitch_keycenter=f#4 sample=4_Gb_mf.wav offset=7396
<region> lokey=g#4 hikey=a#4 pitch_keycenter=a4 sample=4_A_mf.wav offset=12631
<region> lokey=b4 hikey=c#5 pitch_keycenter=c5 sample=5_C_mf.wav offset=10628
<region> lokey=d5 hikey=e5 pitch_keycenter=d#5 sample=5_Eb_mf.wav offset=13427
<region> lokey=f5 hikey=g5 pitch_keycenter=f#5 sample=5_Gb_mf.wav offset=10307
<region> lokey=g#5 hikey=a#5 pitch_keycenter=a5 sample=5_A_mf.wav offset=7314
<region> lokey=b5 hikey=c#6 pitch_keycenter=c6 sample=6_C_mf.wav offset=8093
<region> lokey=d6 pitch_keycenter=d#6 sample=6_Eb_mf.wav offset=5452